<svg xmlns="http://www.w3.org/2000/svg" viewBox="0 0 246876 333334" shape-rendering="geometricPrecision" text-rendering="geometricPrecision" image-rendering="optimizeQuality" fill-rule="evenodd" clip-rule="evenodd"><path d="M123438 0c67892 0 123438 55547 123438 123438v207831l-31048-29300-30999 30270-31001-29906-30999 31001-32094-31730-29541 31365-31728-30999L-1 329564V123439C-1 55547 55546 1 123437 1zm74570 134205c8859 0 16040 8119 16040 18133 0 5361-2058 10179-5329 13498 11040-4892 18742-15945 18742-28798 0-17387-14096-31483-31483-31483s-31483 14095-31483 31483c0 15269 10871 27999 25297 30874-4685-3167-7824-8956-7824-15575 0-10014 7181-18133 16040-18133zm-83027 0c8859 0 16040 8119 16040 18133 0 5248-1972 9977-5125 13288 10790-4993 18276-15915 18276-28587 0-17387-14096-31483-31483-31483s-31483 14095-31483 31483c0 15399 11056 28217 25663 30946-4743-3148-7928-8977-7928-15646 0-10014 7181-18133 16040-18133z"/></svg>